<?xml version="1.0" encoding="UTF-8"?>
<svg id="Layer_1" xmlns="http://www.w3.org/2000/svg" version="1.1" xmlns:xlink="http://www.w3.org/1999/xlink" viewBox="0 0 2592 1147.91">
  <!-- Generator: Adobe Illustrator 29.5.1, SVG Export Plug-In . SVG Version: 2.1.0 Build 141)  -->
  <defs>
    <style>
      .st0 {
        fill: #f97960;
      }

      .st1 {
        fill: #a31138;
      }

      .st2 {
        fill: #dc2146;
      }

      .st3 {
        fill: #db251d;
      }

      .st4 {
        fill: none;
      }

      .st5 {
        fill: #f1a875;
      }

      .st6 {
        fill: #9e273b;
      }

      .st7 {
        fill: #b40a36;
      }

      .st8 {
        clip-path: url(#clippath-1);
      }

      .st9 {
        fill: #f85546;
      }

      .st10 {
        fill: #b50a36;
      }

      .st11 {
        fill: #892734;
      }

      .st12 {
        fill: #7f263c;
      }

      .st13 {
        fill: #f65646;
      }

      .st14 {
        fill: #b4273a;
      }

      .st15 {
        fill: #1b1918;
        fill-rule: evenodd;
      }

      .st16 {
        fill: #8e2738;
      }

      .st17 {
        fill: #f2333b;
      }

      .st18 {
        fill: #f97962;
      }

      .st19 {
        fill: #b4243f;
      }

      .st20 {
        fill: #a12643;
      }

      .st21 {
        fill: #a32643;
      }

      .st22 {
        fill: #d61510;
      }

      .st23 {
        font-family: ArialMT, Arial;
        font-size: 78.44px;
      }

      .st24 {
        fill: #6e0835;
      }

      .st25 {
        fill: #78253b;
      }

      .st26 {
        clip-path: url(#clippath-2);
      }

      .st27 {
        fill: #89093d;
      }

      .st28 {
        fill: #942726;
      }

      .st29 {
        clip-path: url(#clippath);
      }

      .st30 {
        fill: #cd1036;
      }

      .st31 {
        fill: #fb7963;
      }

      .st32 {
        fill: #992741;
      }

      .st33 {
        fill: #e6113b;
      }

      .st34 {
        fill: #fa7a61;
      }
    </style>
    <clipPath id="clippath">
      <circle class="st4" cx="1076.08" cy="354.77" r="106.91"/>
    </clipPath>
    <clipPath id="clippath-1">
      <circle class="st4" cx="1076.08" cy="790.31" r="106.91"/>
    </clipPath>
    <clipPath id="clippath-2">
      <circle class="st4" cx="1510.8" cy="355.65" r="106.91"/>
    </clipPath>
  </defs>
  <g class="st29">
    <path class="st30" d="M1046.6,319.09c23.02-9.23,46.04-18.45,69.06-27.68-10.57,17.97-21.15,35.95-31.72,53.92l-37.34-26.24Z"/>
    <polygon class="st14" points="1055.54 359.74 1083.94 345.33 1117.24 381.37 1055.54 359.74"/>
    <polygon class="st17" points="1032.76 309.43 1083.94 345.33 1055.54 359.74 1032.76 309.43"/>
    <polygon class="st30" points="1016.46 397.52 1055.54 359.74 1032.76 309.43 1016.46 397.52"/>
    <polygon class="st14" points="1016.46 397.52 1055.54 359.74 1107.7 417.19 1016.46 397.52"/>
    <path class="st30" d="M1107.7,417.19c3.18-11.94,6.37-23.88,9.55-35.82-20.57-7.21-41.14-14.42-61.71-21.63l52.16,57.44Z"/>
    <polygon class="st17" points="1083.94 345.33 1104.41 345.33 1115.95 290.97 1083.94 345.33"/>
    <polygon class="st14" points="1083.94 345.33 1117.24 381.37 1166.25 359.74 1104.41 345.33 1083.94 345.33"/>
    <path class="st10" d="M1016.46,397.52c3.67,17.64,7.35,35.28,11.02,52.93l20.91,8.07c19.77-13.78,39.54-27.55,59.3-41.33-30.41-6.56-60.82-13.11-91.23-19.67Z"/>
    <path class="st6" d="M1107.73,417.13c11.78.02,23.56.04,35.34.06l-25.82-35.82c-3.17,11.92-6.34,23.84-9.52,35.76Z"/>
    <polygon class="st24" points="1117.24 381.37 1166.25 359.74 1143.06 417.19 1117.24 381.37"/>
    <polygon class="st30" points="1166.25 341.36 1115.95 290.97 1104.41 345.33 1166.25 341.36"/>
    <polygon class="st6" points="1104.41 345.33 1166.25 341.36 1166.25 359.74 1104.41 345.33"/>
    <polygon class="st17" points="1016.46 397.52 1032.76 309.43 964.56 325.29 1016.46 397.52"/>
    <polygon class="st1" points="966.59 381.37 1016.46 397.52 988.21 422.89 966.59 381.37"/>
    <polygon class="st10" points="1016.46 397.52 964.56 324.13 966.59 381.37 1016.46 397.52"/>
    <polygon class="st10" points="988.21 422.89 1016.46 397.52 1016.46 450.69 988.21 422.89"/>
    <polygon class="st21" points="1016.46 450.69 1016.46 397.52 1028.86 453.75 1016.46 450.69"/>
    <polygon class="st21" points="1040.14 462.66 1107.73 417.13 1066.2 469.9 1040.14 462.66"/>
    <polygon class="st12" points="1106.14 467.73 1107.73 417.13 1121.2 467.73 1106.14 467.73"/>
    <path class="st11" d="M1063.32,473.5c14.8-18.79,29.6-37.58,44.41-56.37l-1.59,56.09c-14.27.1-28.55.19-42.82.29Z"/>
    <path class="st16" d="M1132.53,452.74c3.51-11.85,7.02-23.7,10.54-35.55l-35.34-.06,11.09,41.66c4.57-2.02,9.14-4.03,13.71-6.05Z"/>
    <polygon class="st30" points="971.45 318.15 1002.33 294.68 1032.76 309.43 969.53 324.13 971.45 318.15"/>
    <polygon class="st19" points="1115.95 290.97 1179.67 339.7 1166.25 341.36 1115.95 290.97"/>
    <path class="st32" d="M1142.91,417.7c2.63,8.6,5.26,17.21,7.89,25.81l-18.27,9.23c3.46-11.68,6.92-23.36,10.38-35.04Z"/>
    <polygon class="st28" points="1163.52 427.07 1142.91 417.7 1150.79 443.51 1163.52 427.07"/>
    <polygon class="st20" points="1171.33 417.19 1142.91 417.7 1164.49 427.51 1171.33 417.19"/>
    <path class="st27" d="M1142.91,417.7l29.53-.58c3.8-11.2,7.61-22.4,11.41-33.59-5.86-7.93-11.73-15.86-17.59-23.79-7.79,19.32-15.57,38.64-23.36,57.96Z"/>
    <path class="st32" d="M1189.19,352.68l-22.92,7.06c6.1,8.22,12.21,16.44,18.31,24.65,1.54-10.57,3.08-21.15,4.61-31.72Z"/>
    <polygon class="st12" points="1166.26 359.74 1177.73 339.94 1166.25 341.36 1166.26 359.74"/>
    <polygon class="st7" points="1166.26 359.74 1177.73 339.94 1184.43 338.98 1185.83 353.72 1166.26 359.74"/>
    <polygon class="st25" points="1178.73 338.98 1183.42 329.9 1185.83 338.49 1184.43 338.98 1179.67 339.7 1178.73 338.98"/>
    <path class="st10" d="M1115.95,290.97c16.77-4.41,33.54-8.82,50.31-13.22l19.57,43.62-2.41,8.53-4.69,9.08c-20.93-16-41.86-32.01-62.78-48.01Z"/>
    <polygon class="st31" points="1115.95 290.97 1143.63 265.74 1157.73 279.99 1115.95 290.97"/>
    <path class="st13" d="M1046.6,319.09l1.73-43.11c22.54,5.09,45.08,10.19,67.62,15.28-23.12,9.28-46.23,18.55-69.35,27.83Z"/>
    <path class="st2" d="M1002.33,294.72c-5.05.34-10.09.67-15.14,1.01l-9.35,17.56c8.16-6.19,16.33-12.38,24.49-18.57Z"/>
    <polygon class="st2" points="991.81 285.93 999.16 295.44 987.2 295.73 991.81 285.93"/>
    <path class="st22" d="M995.13,283.47c1.59,3.8,3.17,7.59,4.76,11.39-.38.05-.77.1-1.15.14-2.74-3.67-5.48-7.34-8.22-11l4.61-.53Z"/>
    <polygon class="st13" points="999.88 294.86 1032.76 259.78 1048.33 275.98 1032.76 309.43 999.88 294.86"/>
    <path class="st0" d="M1032.76,309.43l15.44-33.17c-.53,14.28-1.07,28.55-1.6,42.83-4.61-3.22-9.23-6.44-13.84-9.66Z"/>
    <path class="st18" d="M994.55,282.46c1.78,4.13,3.56,8.27,5.33,12.4l32.87-35.08v-7.33c-12.74,10-25.47,20-38.21,30.01Z"/>
    <polygon class="st34" points="1032.76 250.58 1032.76 259.78 1048.33 275.98 1115.95 291.26 1040.83 244.55 1032.76 250.58"/>
    <polygon class="st33" points="1049.35 249.84 1068.95 262.03 1072.98 245.84 1048.33 244.76 1049.35 249.84"/>
    <path class="st5" d="M1073.56,244.26l-4.61,17.77c15.67,9.74,31.33,19.49,47,29.23-11.61-15.42-23.21-30.85-34.82-46.27-2.57-.39-5.14-.77-7.71-1.16"/>
    <path class="st34" d="M1081.13,244.99c11.61,15.42,23.21,30.85,34.82,46.27-1.83-14.61-3.65-29.22-5.48-43.83l-29.34-2.44Z"/>
    <path class="st9" d="M1109.75,245.41c2.07,15.19,4.13,30.37,6.2,45.56l13.84-40.8c-6.68-1.59-13.36-3.17-20.04-4.76Z"/>
    <polyline class="st3" points="1130.51 248.29 1115.95 290.97 1147.09 262.71 1130.51 247.86"/>
    <polygon class="st30" points="1117.24 381.37 1104.41 345.33 1083.94 345.33 1117.24 381.37"/>
  </g>
  <g class="st8">
    <path class="st30" d="M1046.6,754.62c23.02-9.23,46.04-18.45,69.06-27.68-10.57,17.97-21.15,35.95-31.72,53.92l-37.34-26.24Z"/>
    <polygon class="st14" points="1055.54 795.28 1083.94 780.86 1117.24 816.91 1055.54 795.28"/>
    <polygon class="st17" points="1032.76 744.96 1083.94 780.86 1055.54 795.28 1032.76 744.96"/>
    <polygon class="st30" points="1016.46 833.06 1055.54 795.28 1032.76 744.96 1016.46 833.06"/>
    <polygon class="st14" points="1016.46 833.06 1055.54 795.28 1107.7 852.73 1016.46 833.06"/>
    <path class="st30" d="M1107.7,852.73c3.18-11.94,6.37-23.88,9.55-35.82-20.57-7.21-41.14-14.42-61.71-21.63l52.16,57.44Z"/>
    <polygon class="st17" points="1083.94 780.86 1104.41 780.86 1115.95 726.51 1083.94 780.86"/>
    <polygon class="st14" points="1083.94 780.86 1117.24 816.91 1166.25 795.28 1104.41 780.86 1083.94 780.86"/>
    <path class="st10" d="M1016.46,833.06c3.67,17.64,7.35,35.28,11.02,52.93l20.91,8.07c19.77-13.78,39.54-27.55,59.3-41.33-30.41-6.56-60.82-13.11-91.23-19.67Z"/>
    <path class="st6" d="M1107.73,852.66c11.78.02,23.56.04,35.34.06l-25.82-35.82c-3.17,11.92-6.34,23.84-9.52,35.76Z"/>
    <polygon class="st24" points="1117.24 816.91 1166.25 795.28 1143.06 852.73 1117.24 816.91"/>
    <polygon class="st30" points="1166.25 776.89 1115.95 726.51 1104.41 780.86 1166.25 776.89"/>
    <polygon class="st6" points="1104.41 780.86 1166.25 776.89 1166.25 795.28 1104.41 780.86"/>
    <polygon class="st17" points="1016.46 833.06 1032.76 744.96 964.56 760.82 1016.46 833.06"/>
    <polygon class="st1" points="966.59 816.91 1016.46 833.06 988.21 858.43 966.59 816.91"/>
    <polygon class="st10" points="1016.46 833.06 964.56 759.67 966.59 816.91 1016.46 833.06"/>
    <polygon class="st10" points="988.21 858.43 1016.46 833.06 1016.46 886.22 988.21 858.43"/>
    <polygon class="st21" points="1016.46 886.22 1016.46 833.06 1028.86 889.29 1016.46 886.22"/>
    <polygon class="st21" points="1040.14 898.19 1107.73 852.66 1066.2 905.43 1040.14 898.19"/>
    <polygon class="st12" points="1106.14 903.27 1107.73 852.66 1121.2 903.27 1106.14 903.27"/>
    <path class="st11" d="M1063.32,909.04c14.8-18.79,29.6-37.58,44.41-56.37l-1.59,56.09c-14.27.1-28.55.19-42.82.29Z"/>
    <path class="st16" d="M1132.53,888.28c3.51-11.85,7.02-23.7,10.54-35.55l-35.34-.06,11.09,41.66c4.57-2.02,9.14-4.03,13.71-6.05Z"/>
    <polygon class="st30" points="971.45 753.69 1002.33 730.22 1032.76 744.96 969.53 759.67 971.45 753.69"/>
    <polygon class="st19" points="1115.95 726.51 1179.67 775.24 1166.25 776.89 1115.95 726.51"/>
    <path class="st32" d="M1142.91,853.24c2.63,8.6,5.26,17.21,7.89,25.81l-18.27,9.23c3.46-11.68,6.92-23.36,10.38-35.04Z"/>
    <polygon class="st28" points="1163.52 862.61 1142.91 853.24 1150.79 879.05 1163.52 862.61"/>
    <polygon class="st20" points="1171.33 852.73 1142.91 853.24 1164.49 863.05 1171.33 852.73"/>
    <path class="st27" d="M1142.91,853.24l29.53-.58c3.8-11.2,7.61-22.4,11.41-33.59-5.86-7.93-11.73-15.86-17.59-23.79-7.79,19.32-15.57,38.64-23.36,57.96Z"/>
    <path class="st32" d="M1189.19,788.22l-22.92,7.06c6.1,8.22,12.21,16.44,18.31,24.65,1.54-10.57,3.08-21.15,4.61-31.72Z"/>
    <polygon class="st12" points="1166.26 795.28 1177.73 775.48 1166.25 776.89 1166.26 795.28"/>
    <polygon class="st7" points="1166.26 795.28 1177.73 775.48 1184.43 774.52 1185.83 789.25 1166.26 795.28"/>
    <polygon class="st25" points="1178.73 774.52 1183.42 765.44 1185.83 774.02 1184.43 774.52 1179.67 775.24 1178.73 774.52"/>
    <path class="st10" d="M1115.95,726.51c16.77-4.41,33.54-8.82,50.31-13.22l19.57,43.62-2.41,8.53-4.69,9.08c-20.93-16-41.86-32.01-62.78-48.01Z"/>
    <polygon class="st31" points="1115.95 726.51 1143.63 701.28 1157.73 715.53 1115.95 726.51"/>
    <path class="st13" d="M1046.6,754.62l1.73-43.11c22.54,5.09,45.08,10.19,67.62,15.28-23.12,9.28-46.23,18.55-69.35,27.83Z"/>
    <path class="st2" d="M1002.33,730.26c-5.05.34-10.09.67-15.14,1.01l-9.35,17.56c8.16-6.19,16.33-12.38,24.49-18.57Z"/>
    <polygon class="st2" points="991.81 721.46 999.16 730.98 987.2 731.27 991.81 721.46"/>
    <path class="st22" d="M995.13,719.01c1.59,3.8,3.17,7.59,4.76,11.39-.38.05-.77.1-1.15.14-2.74-3.67-5.48-7.34-8.22-11l4.61-.53Z"/>
    <polygon class="st13" points="999.88 730.4 1032.76 695.32 1048.33 711.51 1032.76 744.96 999.88 730.4"/>
    <path class="st0" d="M1032.76,744.96l15.44-33.17c-.53,14.28-1.07,28.55-1.6,42.83-4.61-3.22-9.23-6.44-13.84-9.66Z"/>
    <path class="st18" d="M994.55,718c1.78,4.13,3.56,8.27,5.33,12.4l32.87-35.08v-7.33c-12.74,10-25.47,20-38.21,30.01Z"/>
    <polygon class="st34" points="1032.76 686.12 1032.76 695.32 1048.33 711.51 1115.95 726.8 1040.83 680.08 1032.76 686.12"/>
    <polygon class="st33" points="1049.35 685.38 1068.95 697.57 1072.98 681.38 1048.33 680.3 1049.35 685.38"/>
    <path class="st5" d="M1073.56,679.8l-4.61,17.77c15.67,9.74,31.33,19.49,47,29.23-11.61-15.42-23.21-30.85-34.82-46.27-2.57-.39-5.14-.77-7.71-1.16"/>
    <path class="st34" d="M1081.13,680.52c11.61,15.42,23.21,30.85,34.82,46.27-1.83-14.61-3.65-29.22-5.48-43.83l-29.34-2.44Z"/>
    <path class="st9" d="M1109.75,680.95c2.07,15.19,4.13,30.37,6.2,45.56l13.84-40.8c-6.68-1.59-13.36-3.17-20.04-4.76Z"/>
    <polyline class="st3" points="1130.51 683.83 1115.95 726.51 1147.09 698.25 1130.51 683.4"/>
    <polygon class="st30" points="1117.24 816.91 1104.41 780.86 1083.94 780.86 1117.24 816.91"/>
  </g>
  <g class="st26">
    <path class="st30" d="M1481.31,319.96c23.02-9.23,46.04-18.45,69.06-27.68-10.57,17.97-21.15,35.95-31.72,53.92l-37.34-26.24Z"/>
    <polygon class="st14" points="1490.25 360.62 1518.65 346.2 1551.96 382.25 1490.25 360.62"/>
    <polygon class="st17" points="1467.47 310.3 1518.65 346.2 1490.25 360.62 1467.47 310.3"/>
    <polygon class="st30" points="1451.18 398.39 1490.25 360.62 1467.47 310.3 1451.18 398.39"/>
    <polygon class="st14" points="1451.18 398.39 1490.25 360.62 1542.41 418.06 1451.18 398.39"/>
    <path class="st30" d="M1542.41,418.06c3.18-11.94,6.37-23.88,9.55-35.82-20.57-7.21-41.14-14.42-61.71-21.63l52.16,57.44Z"/>
    <polygon class="st17" points="1518.65 346.2 1539.13 346.2 1550.66 291.85 1518.65 346.2"/>
    <polygon class="st14" points="1518.65 346.2 1551.96 382.25 1600.97 360.62 1539.13 346.2 1518.65 346.2"/>
    <path class="st10" d="M1451.18,398.39c3.67,17.64,7.35,35.28,11.02,52.93l20.91,8.07c19.77-13.78,39.54-27.55,59.3-41.33-30.41-6.56-60.82-13.11-91.23-19.67Z"/>
    <path class="st6" d="M1542.44,418c11.78.02,23.56.04,35.34.06l-25.82-35.82c-3.17,11.92-6.34,23.84-9.52,35.76Z"/>
    <polygon class="st24" points="1551.96 382.25 1600.97 360.62 1577.78 418.06 1551.96 382.25"/>
    <polygon class="st30" points="1600.97 342.23 1550.66 291.85 1539.13 346.2 1600.97 342.23"/>
    <polygon class="st6" points="1539.13 346.2 1600.97 342.23 1600.97 360.62 1539.13 346.2"/>
    <polygon class="st17" points="1451.18 398.39 1467.47 310.3 1399.27 326.16 1451.18 398.39"/>
    <polygon class="st1" points="1401.31 382.25 1451.18 398.39 1422.92 423.77 1401.31 382.25"/>
    <polygon class="st10" points="1451.18 398.39 1399.27 325 1401.31 382.25 1451.18 398.39"/>
    <polygon class="st10" points="1422.92 423.77 1451.18 398.39 1451.18 451.56 1422.92 423.77"/>
    <polygon class="st21" points="1451.18 451.56 1451.18 398.39 1463.58 454.62 1451.18 451.56"/>
    <polygon class="st21" points="1474.85 463.53 1542.44 418 1500.92 470.77 1474.85 463.53"/>
    <polygon class="st12" points="1540.86 468.61 1542.44 418 1555.91 468.61 1540.86 468.61"/>
    <path class="st11" d="M1498.04,474.38c14.8-18.79,29.6-37.58,44.41-56.37l-1.59,56.09c-14.27.1-28.55.19-42.82.29Z"/>
    <path class="st16" d="M1567.24,453.61c3.51-11.85,7.02-23.7,10.54-35.55l-35.34-.06,11.09,41.66c4.57-2.02,9.14-4.03,13.71-6.05Z"/>
    <polygon class="st30" points="1406.16 319.02 1437.05 295.56 1467.47 310.3 1404.25 325 1406.16 319.02"/>
    <polygon class="st19" points="1550.66 291.85 1614.39 340.58 1600.97 342.23 1550.66 291.85"/>
    <path class="st32" d="M1577.62,418.58c2.63,8.6,5.26,17.21,7.89,25.81l-18.27,9.23c3.46-11.68,6.92-23.36,10.38-35.04Z"/>
    <polygon class="st28" points="1598.24 427.95 1577.62 418.58 1585.51 444.39 1598.24 427.95"/>
    <polygon class="st20" points="1606.05 418.06 1577.62 418.58 1599.2 428.38 1606.05 418.06"/>
    <path class="st27" d="M1577.62,418.58l29.53-.58c3.8-11.2,7.61-22.4,11.41-33.59-5.86-7.93-11.73-15.86-17.59-23.79-7.79,19.32-15.57,38.64-23.36,57.96Z"/>
    <path class="st32" d="M1623.9,353.55l-22.92,7.06c6.1,8.22,12.21,16.44,18.31,24.65,1.54-10.57,3.08-21.15,4.61-31.72Z"/>
    <polygon class="st12" points="1600.98 360.62 1612.44 340.82 1600.97 342.23 1600.98 360.62"/>
    <polygon class="st7" points="1600.98 360.62 1612.44 340.82 1619.14 339.86 1620.54 354.59 1600.98 360.62"/>
    <polygon class="st25" points="1613.44 339.86 1618.14 330.77 1620.54 339.36 1619.14 339.86 1614.39 340.58 1613.44 339.86"/>
    <path class="st10" d="M1550.66,291.85c16.77-4.41,33.54-8.82,50.31-13.22l19.57,43.62-2.41,8.53-4.69,9.08c-20.93-16-41.86-32.01-62.78-48.01Z"/>
    <polygon class="st31" points="1550.66 291.85 1578.34 266.62 1592.45 280.86 1550.66 291.85"/>
    <path class="st13" d="M1481.31,319.96l1.73-43.11c22.54,5.09,45.08,10.19,67.62,15.28-23.12,9.28-46.23,18.55-69.35,27.83Z"/>
    <path class="st2" d="M1437.05,295.6c-5.05.34-10.09.67-15.14,1.01l-9.35,17.56c8.16-6.19,16.33-12.38,24.49-18.57Z"/>
    <polygon class="st2" points="1426.52 286.8 1433.88 296.32 1421.91 296.6 1426.52 286.8"/>
    <path class="st22" d="M1429.84,284.35c1.59,3.8,3.17,7.59,4.76,11.39-.38.05-.77.1-1.15.14-2.74-3.67-5.48-7.34-8.22-11l4.61-.53Z"/>
    <polygon class="st13" points="1434.6 295.74 1467.47 260.66 1483.04 276.85 1467.47 310.3 1434.6 295.74"/>
    <path class="st0" d="M1467.47,310.3l15.44-33.17c-.53,14.28-1.07,28.55-1.6,42.83-4.61-3.22-9.23-6.44-13.84-9.66Z"/>
    <path class="st18" d="M1429.26,283.34c1.78,4.13,3.56,8.27,5.33,12.4l32.87-35.08v-7.33c-12.74,10-25.47,20-38.21,30.01Z"/>
    <polygon class="st34" points="1467.47 251.46 1467.47 260.66 1483.04 276.85 1550.66 292.14 1475.54 245.42 1467.47 251.46"/>
    <polygon class="st33" points="1484.06 250.72 1503.66 262.91 1507.7 246.72 1483.04 245.64 1484.06 250.72"/>
    <path class="st5" d="M1508.27,245.13l-4.61,17.77c15.67,9.74,31.33,19.49,47,29.23-11.61-15.42-23.21-30.85-34.82-46.27-2.57-.39-5.14-.77-7.71-1.16"/>
    <path class="st34" d="M1515.84,245.86c11.61,15.42,23.21,30.85,34.82,46.27-1.83-14.61-3.65-29.22-5.48-43.83l-29.34-2.44Z"/>
    <path class="st9" d="M1544.46,246.29c2.07,15.19,4.13,30.37,6.2,45.56l13.84-40.8c-6.68-1.59-13.36-3.17-20.04-4.76Z"/>
    <polyline class="st3" points="1565.22 249.17 1550.66 291.85 1581.8 263.59 1565.22 248.74"/>
    <polygon class="st30" points="1551.96 382.25 1539.13 346.2 1518.65 346.2 1551.96 382.25"/>
  </g>
  <path class="st15" d="M369.88,362.42c-7.94-6.3-22.41-16.6-44.19-31.5-21.15-14.43-38.67-28.35-52.09-41.35-18.54-17.71-27.94-37.94-27.94-60.12,0-19.13,7-34.19,20.79-44.74,13.97-10.69,32.35-16.09,54.64-16.09,33.8,0,64.04,6.34,89.86,18.84l1.81.87,12.43-27.05-1.72-.84c-28.49-14.05-61.02-21.15-96.67-21.15s-64.3,8.26-84.68,24.54c-20.49,16.41-30.88,39.35-30.88,68.16s11.09,54.42,32.97,76.29c11.39,10.97,21.47,19.88,29.97,26.47,8.43,6.53,23.5,17.32,44.82,32.1,21.2,14.7,38.28,28.5,50.81,41.04,17.71,17.29,26.7,36.45,26.7,56.95,0,23.75-8.81,42.44-26.19,55.52-17.54,13.21-42.45,19.91-74,19.91s-61.96-9.71-90.25-28.85l-1.62-1.1-17.39,25.36,1.47,1.15c28.59,22.17,64.54,33.42,106.85,33.42s75.81-9.23,99.54-27.39c23.88-18.28,35.98-45.6,35.98-81.19,0-27.49-10.66-52.09-31.7-73.12-11.43-11-21.3-19.8-29.33-26.13Z"/>
  <polygon class="st15" points="807.31 327.21 490.93 327.21 490.93 139.29 453.76 139.29 453.76 570.43 490.93 570.43 490.93 360.8 807.31 360.8 807.31 570.43 844.46 570.43 844.46 139.29 807.31 139.29 807.31 327.21"/>
  <polygon class="st15" points="1813.31 570.53 1847.88 570.53 1847.88 171.15 1996.33 171.15 1996.33 139.29 1664.85 139.29 1664.85 171.15 1813.31 171.15 1813.31 570.53"/>
  <path class="st15" d="M1627,673.82c16.65-1.1,39.52-1.69,68.1-1.69,43.39,0,80.39,14.06,109.96,41.76,29.44,27.6,44.39,65.48,44.39,112.57,0,47.04-13.12,82.56-39,105.59-26.09,23.23-56.73,40.3-100.15,40.3-31.97,0-61.72-.76-83.3-.96v-297.57ZM1343.36,678.81c16.7-1.12,31.39-1.71,43.78-1.71,24.98,0,45.48,6,60.91,17.83,15.17,11.62,22.54,28.25,22.54,50.82s-7.51,43.02-22.34,60.14c-14.64,16.89-28.07,25.45-39.95,25.45-19.96,0-41.78-.76-64.94-2.28v-150.25ZM1695.1,638.52c-37.97,0-71.59,1.06-99.9,3.17l-5.51.43v329.96c-19.84.51-45.52-2.02-63.83-21.4-9.73-10.28-34.44-49.98-73.74-102.16,13.74-10.79,26.28-24.46,37.3-40.67,12.62-18.58,19.03-39.12,19.03-61.03,0-32.81-11.44-58.51-33.99-76.37-22.15-17.53-50.46-26.42-84.14-26.42-21.39,0-47.54,1.26-77.74,3.72l-5.48.45v359.57h36.26v-146.67c24.47,1.44,49.7,2.19,75.13,2.25,40.77,56.42,66.57,97.68,78.84,110.85,12.67,13.59,25.72,23.39,38.74,29.16,8.7,3.84,64.12,4.75,151.13,4.83,6.13.1,12.44.45,18.5.45,4.09,0,8.05-.25,12.06-.43,3.47.02,6.32.02,8.01.06l.04-.41c43.84-3.32,80.75-25.15,109.97-50.43,33.84-29.27,51-73.34,51-130.95s-18.54-103.78-55.1-137.44c-36.43-33.53-82.38-50.51-136.58-50.51Z"/>
  <path class="st15" d="M2332.95,946.86c-10.23-10.84-36.28-44.8-77.66-99.73,14.45-11.37,27.66-25.74,39.29-42.82,13.29-19.54,20.02-41.17,20.02-64.27,0-34.54-12.04-61.61-35.8-80.41-23.29-18.46-53.1-27.8-88.58-27.8-22.44,0-49.97,1.31-81.84,3.9l-5.76.48v339.88h-165.95v-150.14h129.26v-34.28h-129.26v-118.95h143.18v-34.83h-181.35v370.07h204.12v.17h38.17v-147.77c25.77,1.52,52.31,2.31,79.09,2.38,42.24,58.48,70.18,95.09,83.01,108.86,13.35,14.31,27.07,24.65,40.78,30.7,12.03,5.34,26.43,5.43,43.11,5.54h17.07s.06-40.63.06-40.63c-45.05,4.25-55.48-3.99-70.97-20.38h.01ZM2140.79,668.46c17.57-1.19,33.04-1.8,46.08-1.8,26.31,0,47.89,6.31,64.16,18.77,15.94,12.22,23.73,29.72,23.73,53.51s-7.93,45.21-23.53,63.28c-15.42,17.78-29.58,26.82-42.07,26.82-20.99,0-43.98-.82-68.37-2.39v-158.19Z"/>
  <path class="st15" d="M1041.49,572.97c-.23,18.5-11.96,36.91-35.21,45.82-2.51.96-5.32,2.23-8.34,3.68-19.81,9.57-39.92,21.94-55.73,37.41-32.57,33.68-52.61,79.54-52.61,130.07,0,100.61,79.44,182.69,179.01,186.95l15.6.02c99.87-3.93,179.66-86.14,179.66-186.96,0-50.54-20.04-96.4-52.61-130.07-1.78-1.73-3.59-3.44-5.43-5.1-11.75-10.49-34-24.44-50.3-32.31-3.02-1.46-5.83-2.72-8.34-3.68-23.25-8.91-34.98-27.32-35.21-45.82.23-18.5,11.96-36.91,35.21-45.82,2.51-.96,5.26-2.37,8.34-3.69,12.44-5.33,26.95-13.88,38.51-22.02,4.37-3.53,8.58-7.25,12.61-11.15,1.73-1.77,3.44-3.58,5.1-5.43,10.49-11.74,24.44-33.99,32.31-50.3,1.46-3.01,2.73-5.82,3.69-8.33,8.91-23.25,27.32-34.99,45.82-35.22,18.51.23,36.92,11.97,45.82,35.22.97,2.51,2.23,5.32,3.69,8.33,7.87,16.31,21.82,38.56,32.31,50.3,1.67,1.85,3.37,3.66,5.1,5.43,33.68,32.57,79.54,52.61,130.08,52.61,100.61,0,182.69-79.44,186.94-179l.02-15.6c-3.93-99.87-86.13-179.66-186.96-179.66-50.54,0-96.4,20.04-130.08,52.61-1.73,1.78-3.43,3.59-5.1,5.43-10.49,11.75-24.44,34-32.31,50.3-1.46,3.02-2.72,5.82-3.69,8.34-8.9,23.24-27.31,34.98-45.82,35.21-18.5-.23-36.91-11.97-45.82-35.21-.96-2.52-2.23-5.32-3.69-8.34-7.87-16.3-21.82-38.55-32.31-50.3-1.66-1.84-3.37-3.65-5.1-5.43-33.68-32.57-79.54-52.61-130.07-52.61-100.83,0-183.04,79.79-186.97,179.66l.02,15.6c3.11,72.84,44.94,128.96,108.31,159.56,3.02,1.46,5.83,2.73,8.34,3.69,23.25,8.91,34.98,27.32,35.21,45.82ZM860.25,789.97c0-62.85,26.8-119.43,69.59-158.98,18.03-16.33,34.05-26.75,56.72-36.47,15.21-6.51,22.99-14.02,23.36-21.55-.51-8.5-8.74-13.8-23.36-21.55-17.69-9.37-40.03-21.73-56.72-36.44-1.81-1.18-14.21-13.55-13.36-13.54-33.29-36.57-54.23-84.58-56.21-137.44l-.02-15.7c3.95-116.08,99.29-209.01,216.33-209.01,62.84,0,119.43,26.8,158.98,69.58h.02c14.99,15.02,28,37.03,36.44,56.73,6.52,15.2,14.02,22.99,21.55,23.35,7.53-.36,15.04-8.15,21.55-23.35,8.44-19.7,21.45-41.71,36.44-56.73h.03c39.54-42.78,96.13-69.58,158.97-69.58,117.04,0,212.39,92.93,216.33,209.01l-.02,15.7c-4.33,115.73-99.52,208.26-216.3,208.26-62.85,0-119.44-26.8-158.98-69.59h-.03c-14.99-15.02-28-37.03-36.44-56.72-6.51-15.21-14.02-22.99-21.55-23.36-7.53.37-15.03,8.15-21.55,23.36-8.19,19.11-20.68,40.4-35.11,55.36-4.27,4.7-8.61,9.34-13.27,13.65-12.55,12-29.4,22.36-41.82,29.08-1.06.59-10.47,5.51-10.47,5.35-1.84.88-3.35,1.57-4.43,2.03-15.22,6.52-23,14.02-23.36,21.55.36,7.53,8.14,15.04,23.36,21.55,7.76,3.33,47.9,26.7,56.72,36.47,42.78,39.55,69.58,96.13,69.58,158.98,0,117.04-92.93,212.38-209.01,216.32l-15.7-.02c-115.73-4.33-208.26-99.52-208.26-216.3Z"/>
  <g>
    <path class="st15" d="M2356.23,141.8c-26.9,0-48.7,21.81-48.7,48.7s21.81,48.7,48.7,48.7,48.7-21.81,48.7-48.7-21.81-48.7-48.7-48.7ZM2356.23,233.89c-23.96,0-43.38-19.42-43.38-43.38s19.42-43.38,43.38-43.38,43.38,19.42,43.38,43.38-19.42,43.38-43.38,43.38Z"/>
    <text class="st23" transform="translate(2328.5 216.2)"><tspan x="0" y="0">R</tspan></text>
  </g>
</svg>