<?xml version="1.0" encoding="UTF-8"?>
<svg id="Layer_1" xmlns="http://www.w3.org/2000/svg" version="1.1" xmlns:xlink="http://www.w3.org/1999/xlink" viewBox="0 0 2592 1728">
  <!-- Generator: Adobe Illustrator 29.5.1, SVG Export Plug-In . SVG Version: 2.1.0 Build 141)  -->
  <defs>
    <style>
      .st0 {
        fill: #f97960;
      }

      .st1 {
        fill: #a31138;
      }

      .st2 {
        fill: #dc2146;
      }

      .st3 {
        fill: #db251d;
      }

      .st4 {
        fill: none;
      }

      .st5 {
        fill: #f1a875;
      }

      .st6 {
        fill: #9e273b;
      }

      .st7 {
        fill: #b40a36;
      }

      .st8 {
        clip-path: url(#clippath-1);
      }

      .st9 {
        fill: #f85546;
      }

      .st10 {
        fill: #b50a36;
      }

      .st11 {
        fill: #892734;
      }

      .st12 {
        fill: #7f263c;
      }

      .st13 {
        fill: #f65646;
      }

      .st14 {
        fill: #b4273a;
      }

      .st15 {
        fill: #1b1918;
      }

      .st15, .st16 {
        fill-rule: evenodd;
      }

      .st17 {
        fill: #8e2738;
      }

      .st18 {
        fill: #f2333b;
      }

      .st19 {
        fill: #f97962;
      }

      .st20 {
        fill: #b4243f;
      }

      .st21 {
        fill: #a12643;
      }

      .st22 {
        fill: #a32643;
      }

      .st23 {
        fill: #d61510;
      }

      .st24 {
        font-family: ArialMT, Arial;
        font-size: 78.44px;
      }

      .st25 {
        fill: #6e0835;
      }

      .st26 {
        fill: #78253b;
      }

      .st27 {
        clip-path: url(#clippath-2);
      }

      .st28 {
        fill: #89093d;
      }

      .st16 {
        fill: #868789;
      }

      .st29 {
        fill: #942726;
      }

      .st30 {
        clip-path: url(#clippath);
      }

      .st31 {
        fill: #cd1036;
      }

      .st32 {
        fill: #fb7963;
      }

      .st33 {
        fill: #992741;
      }

      .st34 {
        fill: #e6113b;
      }

      .st35 {
        fill: #fa7a61;
      }
    </style>
    <clipPath id="clippath">
      <circle class="st4" cx="1076.6" cy="544.65" r="106.91"/>
    </clipPath>
    <clipPath id="clippath-1">
      <circle class="st4" cx="1076.6" cy="980.19" r="106.91"/>
    </clipPath>
    <clipPath id="clippath-2">
      <circle class="st4" cx="1511.31" cy="545.53" r="106.91"/>
    </clipPath>
  </defs>
  <g class="st30">
    <path class="st31" d="M1047.11,508.97c23.02-9.23,46.04-18.45,69.06-27.68-10.57,17.97-21.15,35.95-31.72,53.92l-37.34-26.24Z"/>
    <polygon class="st14" points="1056.05 549.62 1084.45 535.21 1117.76 571.25 1056.05 549.62"/>
    <polygon class="st18" points="1033.27 499.31 1084.45 535.21 1056.05 549.62 1033.27 499.31"/>
    <polygon class="st31" points="1016.98 587.4 1056.05 549.62 1033.27 499.31 1016.98 587.4"/>
    <polygon class="st14" points="1016.98 587.4 1056.05 549.62 1108.21 607.07 1016.98 587.4"/>
    <path class="st31" d="M1108.21,607.07c3.18-11.94,6.37-23.88,9.55-35.82-20.57-7.21-41.14-14.42-61.71-21.63l52.16,57.44Z"/>
    <polygon class="st18" points="1084.45 535.21 1104.93 535.21 1116.46 480.85 1084.45 535.21"/>
    <polygon class="st14" points="1084.45 535.21 1117.76 571.25 1166.77 549.62 1104.93 535.21 1084.45 535.21"/>
    <path class="st10" d="M1016.98,587.4c3.67,17.64,7.35,35.28,11.02,52.93l20.91,8.07c19.77-13.78,39.54-27.55,59.3-41.33-30.41-6.56-60.82-13.11-91.23-19.67Z"/>
    <path class="st6" d="M1108.24,607.01c11.78.02,23.56.04,35.34.06l-25.82-35.82c-3.17,11.92-6.34,23.84-9.52,35.76Z"/>
    <polygon class="st25" points="1117.76 571.25 1166.77 549.62 1143.58 607.07 1117.76 571.25"/>
    <polygon class="st31" points="1166.77 531.24 1116.46 480.85 1104.93 535.21 1166.77 531.24"/>
    <polygon class="st6" points="1104.93 535.21 1166.77 531.24 1166.77 549.62 1104.93 535.21"/>
    <polygon class="st18" points="1016.98 587.4 1033.27 499.31 965.07 515.17 1016.98 587.4"/>
    <polygon class="st1" points="967.11 571.25 1016.98 587.4 988.72 612.77 967.11 571.25"/>
    <polygon class="st10" points="1016.98 587.4 965.07 514.01 967.11 571.25 1016.98 587.4"/>
    <polygon class="st10" points="988.72 612.77 1016.98 587.4 1016.98 640.57 988.72 612.77"/>
    <polygon class="st22" points="1016.98 640.57 1016.98 587.4 1029.38 643.63 1016.98 640.57"/>
    <polygon class="st22" points="1040.65 652.53 1108.24 607.01 1066.72 659.78 1040.65 652.53"/>
    <polygon class="st12" points="1106.66 657.61 1108.24 607.01 1121.71 657.61 1106.66 657.61"/>
    <path class="st11" d="M1063.84,663.38c14.8-18.79,29.6-37.58,44.41-56.37l-1.59,56.09c-14.27.1-28.55.19-42.82.29Z"/>
    <path class="st17" d="M1133.04,642.62c3.51-11.85,7.02-23.7,10.54-35.55l-35.34-.06,11.09,41.66c4.57-2.02,9.14-4.03,13.71-6.05Z"/>
    <polygon class="st31" points="971.96 508.03 1002.85 484.56 1033.27 499.31 970.05 514.01 971.96 508.03"/>
    <polygon class="st20" points="1116.46 480.85 1180.19 529.58 1166.77 531.24 1116.46 480.85"/>
    <path class="st33" d="M1143.42,607.58c2.63,8.6,5.26,17.21,7.89,25.81l-18.27,9.23c3.46-11.68,6.92-23.36,10.38-35.04Z"/>
    <polygon class="st29" points="1164.04 616.95 1143.42 607.58 1151.31 633.39 1164.04 616.95"/>
    <polygon class="st21" points="1171.85 607.07 1143.42 607.58 1165 617.39 1171.85 607.07"/>
    <path class="st28" d="M1143.42,607.58l29.53-.58c3.8-11.2,7.61-22.4,11.41-33.59-5.86-7.93-11.73-15.86-17.59-23.79-7.79,19.32-15.57,38.64-23.36,57.96Z"/>
    <path class="st33" d="M1189.7,542.56l-22.92,7.06c6.1,8.22,12.21,16.44,18.31,24.65,1.54-10.57,3.08-21.15,4.61-31.72Z"/>
    <polygon class="st12" points="1166.78 549.62 1178.24 529.82 1166.77 531.24 1166.78 549.62"/>
    <polygon class="st7" points="1166.78 549.62 1178.24 529.82 1184.94 528.86 1186.34 543.59 1166.78 549.62"/>
    <polygon class="st26" points="1179.24 528.86 1183.94 519.78 1186.34 528.37 1184.94 528.86 1180.19 529.58 1179.24 528.86"/>
    <path class="st10" d="M1116.46,480.85c16.77-4.41,33.54-8.82,50.31-13.22l19.57,43.62-2.41,8.53-4.69,9.08c-20.93-16-41.86-32.01-62.78-48.01Z"/>
    <polygon class="st32" points="1116.46 480.85 1144.14 455.62 1158.25 469.87 1116.46 480.85"/>
    <path class="st13" d="M1047.11,508.97l1.73-43.11c22.54,5.09,45.08,10.19,67.62,15.28-23.12,9.28-46.23,18.55-69.35,27.83Z"/>
    <path class="st2" d="M1002.85,484.6c-5.05.34-10.09.67-15.14,1.01l-9.35,17.56c8.16-6.19,16.33-12.38,24.49-18.57Z"/>
    <polygon class="st2" points="992.32 475.8 999.68 485.32 987.71 485.61 992.32 475.8"/>
    <path class="st23" d="M995.64,473.35c1.59,3.8,3.17,7.59,4.76,11.39-.38.05-.77.1-1.15.14-2.74-3.67-5.48-7.34-8.22-11l4.61-.53Z"/>
    <polygon class="st13" points="1000.4 484.74 1033.27 449.66 1048.84 465.86 1033.27 499.31 1000.4 484.74"/>
    <path class="st0" d="M1033.27,499.31l15.44-33.17c-.53,14.28-1.07,28.55-1.6,42.83-4.61-3.22-9.23-6.44-13.84-9.66Z"/>
    <path class="st19" d="M995.06,472.34c1.78,4.13,3.56,8.27,5.33,12.4l32.87-35.08v-7.33c-12.74,10-25.47,20-38.21,30.01Z"/>
    <polygon class="st35" points="1033.27 440.46 1033.27 449.66 1048.84 465.86 1116.46 481.14 1041.34 434.43 1033.27 440.46"/>
    <polygon class="st34" points="1049.86 439.72 1069.46 451.91 1073.5 435.72 1048.84 434.64 1049.86 439.72"/>
    <path class="st5" d="M1074.07,434.14l-4.61,17.77c15.67,9.74,31.33,19.49,47,29.23-11.61-15.42-23.21-30.85-34.82-46.27-2.57-.39-5.14-.77-7.71-1.16"/>
    <path class="st35" d="M1081.64,434.86c11.61,15.42,23.21,30.85,34.82,46.27-1.83-14.61-3.65-29.22-5.48-43.83l-29.34-2.44Z"/>
    <path class="st9" d="M1110.26,435.29c2.07,15.19,4.13,30.37,6.2,45.56l13.84-40.8c-6.68-1.59-13.36-3.17-20.04-4.76Z"/>
    <polyline class="st3" points="1131.02 438.17 1116.46 480.85 1147.6 452.59 1131.02 437.74"/>
    <polygon class="st31" points="1117.76 571.25 1104.93 535.21 1084.45 535.21 1117.76 571.25"/>
  </g>
  <g class="st8">
    <path class="st31" d="M1047.11,944.5c23.02-9.23,46.04-18.45,69.06-27.68-10.57,17.97-21.15,35.95-31.72,53.92l-37.34-26.24Z"/>
    <polygon class="st14" points="1056.05 985.16 1084.45 970.74 1117.76 1006.79 1056.05 985.16"/>
    <polygon class="st18" points="1033.27 934.84 1084.45 970.74 1056.05 985.16 1033.27 934.84"/>
    <polygon class="st31" points="1016.98 1022.94 1056.05 985.16 1033.27 934.84 1016.98 1022.94"/>
    <polygon class="st14" points="1016.98 1022.94 1056.05 985.16 1108.21 1042.61 1016.98 1022.94"/>
    <path class="st31" d="M1108.21,1042.61c3.18-11.94,6.37-23.88,9.55-35.82-20.57-7.21-41.14-14.42-61.71-21.63l52.16,57.44Z"/>
    <polygon class="st18" points="1084.45 970.74 1104.93 970.74 1116.46 916.39 1084.45 970.74"/>
    <polygon class="st14" points="1084.45 970.74 1117.76 1006.79 1166.77 985.16 1104.93 970.74 1084.45 970.74"/>
    <path class="st10" d="M1016.98,1022.94c3.67,17.64,7.35,35.28,11.02,52.93l20.91,8.07c19.77-13.78,39.54-27.55,59.3-41.33-30.41-6.56-60.82-13.11-91.23-19.67Z"/>
    <path class="st6" d="M1108.24,1042.54c11.78.02,23.56.04,35.34.06l-25.82-35.82c-3.17,11.92-6.34,23.84-9.52,35.76Z"/>
    <polygon class="st25" points="1117.76 1006.79 1166.77 985.16 1143.58 1042.61 1117.76 1006.79"/>
    <polygon class="st31" points="1166.77 966.77 1116.46 916.39 1104.93 970.74 1166.77 966.77"/>
    <polygon class="st6" points="1104.93 970.74 1166.77 966.77 1166.77 985.16 1104.93 970.74"/>
    <polygon class="st18" points="1016.98 1022.94 1033.27 934.84 965.07 950.7 1016.98 1022.94"/>
    <polygon class="st1" points="967.11 1006.79 1016.98 1022.94 988.72 1048.31 967.11 1006.79"/>
    <polygon class="st10" points="1016.98 1022.94 965.07 949.55 967.11 1006.79 1016.98 1022.94"/>
    <polygon class="st10" points="988.72 1048.31 1016.98 1022.94 1016.98 1076.1 988.72 1048.31"/>
    <polygon class="st22" points="1016.98 1076.1 1016.98 1022.94 1029.38 1079.17 1016.98 1076.1"/>
    <polygon class="st22" points="1040.65 1088.07 1108.24 1042.54 1066.72 1095.31 1040.65 1088.07"/>
    <polygon class="st12" points="1106.66 1093.15 1108.24 1042.54 1121.71 1093.15 1106.66 1093.15"/>
    <path class="st11" d="M1063.84,1098.92c14.8-18.79,29.6-37.58,44.41-56.37l-1.59,56.09c-14.27.1-28.55.19-42.82.29Z"/>
    <path class="st17" d="M1133.04,1078.16c3.51-11.85,7.02-23.7,10.54-35.55l-35.34-.06,11.09,41.66c4.57-2.02,9.14-4.03,13.71-6.05Z"/>
    <polygon class="st31" points="971.96 943.57 1002.85 920.1 1033.27 934.84 970.05 949.55 971.96 943.57"/>
    <polygon class="st20" points="1116.46 916.39 1180.19 965.12 1166.77 966.77 1116.46 916.39"/>
    <path class="st33" d="M1143.42,1043.12c2.63,8.6,5.26,17.21,7.89,25.81l-18.27,9.23c3.46-11.68,6.92-23.36,10.38-35.04Z"/>
    <polygon class="st29" points="1164.04 1052.49 1143.42 1043.12 1151.31 1068.93 1164.04 1052.49"/>
    <polygon class="st21" points="1171.85 1042.61 1143.42 1043.12 1165 1052.92 1171.85 1042.61"/>
    <path class="st28" d="M1143.42,1043.12l29.53-.58c3.8-11.2,7.61-22.4,11.41-33.59-5.86-7.93-11.73-15.86-17.59-23.79-7.79,19.32-15.57,38.64-23.36,57.96Z"/>
    <path class="st33" d="M1189.7,978.1l-22.92,7.06c6.1,8.22,12.21,16.44,18.31,24.65,1.54-10.57,3.08-21.15,4.61-31.72Z"/>
    <polygon class="st12" points="1166.78 985.16 1178.24 965.36 1166.77 966.77 1166.78 985.16"/>
    <polygon class="st7" points="1166.78 985.16 1178.24 965.36 1184.94 964.4 1186.34 979.13 1166.78 985.16"/>
    <polygon class="st26" points="1179.24 964.4 1183.94 955.32 1186.34 963.9 1184.94 964.4 1180.19 965.12 1179.24 964.4"/>
    <path class="st10" d="M1116.46,916.39c16.77-4.41,33.54-8.82,50.31-13.22l19.57,43.62-2.41,8.53-4.69,9.08c-20.93-16-41.86-32.01-62.78-48.01Z"/>
    <polygon class="st32" points="1116.46 916.39 1144.14 891.16 1158.25 905.4 1116.46 916.39"/>
    <path class="st13" d="M1047.11,944.5l1.73-43.11c22.54,5.09,45.08,10.19,67.62,15.28-23.12,9.28-46.23,18.55-69.35,27.83Z"/>
    <path class="st2" d="M1002.85,920.14c-5.05.34-10.09.67-15.14,1.01l-9.35,17.56c8.16-6.19,16.33-12.38,24.49-18.57Z"/>
    <polygon class="st2" points="992.32 911.34 999.68 920.86 987.71 921.15 992.32 911.34"/>
    <path class="st23" d="M995.64,908.89c1.59,3.8,3.17,7.59,4.76,11.39-.38.05-.77.1-1.15.14-2.74-3.67-5.48-7.34-8.22-11l4.61-.53Z"/>
    <polygon class="st13" points="1000.4 920.28 1033.27 885.2 1048.84 901.39 1033.27 934.84 1000.4 920.28"/>
    <path class="st0" d="M1033.27,934.84l15.44-33.17c-.53,14.28-1.07,28.55-1.6,42.83-4.61-3.22-9.23-6.44-13.84-9.66Z"/>
    <path class="st19" d="M995.06,907.88c1.78,4.13,3.56,8.27,5.33,12.4l32.87-35.08v-7.33c-12.74,10-25.47,20-38.21,30.01Z"/>
    <polygon class="st35" points="1033.27 876 1033.27 885.2 1048.84 901.39 1116.46 916.68 1041.34 869.96 1033.27 876"/>
    <polygon class="st34" points="1049.86 875.26 1069.46 887.45 1073.5 871.26 1048.84 870.18 1049.86 875.26"/>
    <path class="st5" d="M1074.07,869.68l-4.61,17.77c15.67,9.74,31.33,19.49,47,29.23-11.61-15.42-23.21-30.85-34.82-46.27-2.57-.39-5.14-.77-7.71-1.16"/>
    <path class="st35" d="M1081.64,870.4c11.61,15.42,23.21,30.85,34.82,46.27-1.83-14.61-3.65-29.22-5.48-43.83l-29.34-2.44Z"/>
    <path class="st9" d="M1110.26,870.83c2.07,15.19,4.13,30.37,6.2,45.56l13.84-40.8c-6.68-1.59-13.36-3.17-20.04-4.76Z"/>
    <polyline class="st3" points="1131.02 873.71 1116.46 916.39 1147.6 888.13 1131.02 873.28"/>
    <polygon class="st31" points="1117.76 1006.79 1104.93 970.74 1084.45 970.74 1117.76 1006.79"/>
  </g>
  <g class="st27">
    <path class="st31" d="M1481.83,509.84c23.02-9.23,46.04-18.45,69.06-27.68-10.57,17.97-21.15,35.95-31.72,53.92l-37.34-26.24Z"/>
    <polygon class="st14" points="1490.76 550.5 1519.17 536.08 1552.47 572.13 1490.76 550.5"/>
    <polygon class="st18" points="1467.98 500.18 1519.17 536.08 1490.76 550.5 1467.98 500.18"/>
    <polygon class="st31" points="1451.69 588.27 1490.76 550.5 1467.98 500.18 1451.69 588.27"/>
    <polygon class="st14" points="1451.69 588.27 1490.76 550.5 1542.93 607.94 1451.69 588.27"/>
    <path class="st31" d="M1542.93,607.94c3.18-11.94,6.37-23.88,9.55-35.82-20.57-7.21-41.14-14.42-61.71-21.63l52.16,57.44Z"/>
    <polygon class="st18" points="1519.17 536.08 1539.64 536.08 1551.18 481.73 1519.17 536.08"/>
    <polygon class="st14" points="1519.17 536.08 1552.47 572.13 1601.48 550.5 1539.64 536.08 1519.17 536.08"/>
    <path class="st10" d="M1451.69,588.27c3.67,17.64,7.35,35.28,11.02,52.93l20.91,8.07c19.77-13.78,39.54-27.55,59.3-41.33-30.41-6.56-60.82-13.11-91.23-19.67Z"/>
    <path class="st6" d="M1542.96,607.88c11.78.02,23.56.04,35.34.06l-25.82-35.82c-3.17,11.92-6.34,23.84-9.52,35.76Z"/>
    <polygon class="st25" points="1552.47 572.13 1601.48 550.5 1578.29 607.94 1552.47 572.13"/>
    <polygon class="st31" points="1601.48 532.11 1551.18 481.73 1539.64 536.08 1601.48 532.11"/>
    <polygon class="st6" points="1539.64 536.08 1601.48 532.11 1601.48 550.5 1539.64 536.08"/>
    <polygon class="st18" points="1451.69 588.27 1467.98 500.18 1399.79 516.04 1451.69 588.27"/>
    <polygon class="st1" points="1401.82 572.13 1451.69 588.27 1423.43 613.65 1401.82 572.13"/>
    <polygon class="st10" points="1451.69 588.27 1399.79 514.88 1401.82 572.13 1451.69 588.27"/>
    <polygon class="st10" points="1423.43 613.65 1451.69 588.27 1451.69 641.44 1423.43 613.65"/>
    <polygon class="st22" points="1451.69 641.44 1451.69 588.27 1464.09 644.5 1451.69 641.44"/>
    <polygon class="st22" points="1475.37 653.41 1542.96 607.88 1501.43 660.65 1475.37 653.41"/>
    <polygon class="st12" points="1541.37 658.49 1542.96 607.88 1556.43 658.49 1541.37 658.49"/>
    <path class="st11" d="M1498.55,664.26c14.8-18.79,29.6-37.58,44.41-56.37l-1.59,56.09c-14.27.1-28.55.19-42.82.29Z"/>
    <path class="st17" d="M1567.76,643.49c3.51-11.85,7.02-23.7,10.54-35.55l-35.34-.06,11.09,41.66c4.57-2.02,9.14-4.03,13.71-6.05Z"/>
    <polygon class="st31" points="1406.68 508.9 1437.56 485.44 1467.98 500.18 1404.76 514.88 1406.68 508.9"/>
    <polygon class="st20" points="1551.18 481.73 1614.9 530.46 1601.48 532.11 1551.18 481.73"/>
    <path class="st33" d="M1578.14,608.46c2.63,8.6,5.26,17.21,7.89,25.81l-18.27,9.23c3.46-11.68,6.92-23.36,10.38-35.04Z"/>
    <polygon class="st29" points="1598.75 617.83 1578.14 608.46 1586.02 634.27 1598.75 617.83"/>
    <polygon class="st21" points="1606.56 607.94 1578.14 608.46 1599.72 618.26 1606.56 607.94"/>
    <path class="st28" d="M1578.14,608.46l29.53-.58c3.8-11.2,7.61-22.4,11.41-33.59-5.86-7.93-11.73-15.86-17.59-23.79-7.79,19.32-15.57,38.64-23.36,57.96Z"/>
    <path class="st33" d="M1624.42,543.43l-22.92,7.06c6.1,8.22,12.21,16.44,18.31,24.65,1.54-10.57,3.08-21.15,4.61-31.72Z"/>
    <polygon class="st12" points="1601.49 550.5 1612.96 530.7 1601.48 532.11 1601.49 550.5"/>
    <polygon class="st7" points="1601.49 550.5 1612.96 530.7 1619.66 529.74 1621.06 544.47 1601.49 550.5"/>
    <polygon class="st26" points="1613.96 529.74 1618.65 520.65 1621.06 529.24 1619.66 529.74 1614.9 530.46 1613.96 529.74"/>
    <path class="st10" d="M1551.18,481.73c16.77-4.41,33.54-8.82,50.31-13.22l19.57,43.62-2.41,8.53-4.69,9.08c-20.93-16-41.86-32.01-62.78-48.01Z"/>
    <polygon class="st32" points="1551.18 481.73 1578.86 456.5 1592.96 470.74 1551.18 481.73"/>
    <path class="st13" d="M1481.83,509.84l1.73-43.11c22.54,5.09,45.08,10.19,67.62,15.28-23.12,9.28-46.23,18.55-69.35,27.83Z"/>
    <path class="st2" d="M1437.56,485.48c-5.05.34-10.09.67-15.14,1.01l-9.35,17.56c8.16-6.19,16.33-12.38,24.49-18.57Z"/>
    <polygon class="st2" points="1427.04 476.68 1434.39 486.2 1422.42 486.48 1427.04 476.68"/>
    <path class="st23" d="M1430.35,474.23c1.59,3.8,3.17,7.59,4.76,11.39-.38.05-.77.1-1.15.14-2.74-3.67-5.48-7.34-8.22-11l4.61-.53Z"/>
    <polygon class="st13" points="1435.11 485.62 1467.98 450.54 1483.56 466.73 1467.98 500.18 1435.11 485.62"/>
    <path class="st0" d="M1467.98,500.18l15.44-33.17c-.53,14.28-1.07,28.55-1.6,42.83-4.61-3.22-9.23-6.44-13.84-9.66Z"/>
    <path class="st19" d="M1429.78,473.22c1.78,4.13,3.56,8.27,5.33,12.4l32.87-35.08v-7.33c-12.74,10-25.47,20-38.21,30.01Z"/>
    <polygon class="st35" points="1467.98 441.34 1467.98 450.54 1483.56 466.73 1551.18 482.01 1476.06 435.3 1467.98 441.34"/>
    <polygon class="st34" points="1484.58 440.6 1504.18 452.79 1508.21 436.6 1483.56 435.52 1484.58 440.6"/>
    <path class="st5" d="M1508.79,435.01l-4.61,17.77c15.67,9.74,31.33,19.49,47,29.23-11.61-15.42-23.21-30.85-34.82-46.27-2.57-.39-5.14-.77-7.71-1.16"/>
    <path class="st35" d="M1516.36,435.74c11.61,15.42,23.21,30.85,34.82,46.27-1.83-14.61-3.65-29.22-5.48-43.83l-29.34-2.44Z"/>
    <path class="st9" d="M1544.98,436.17c2.07,15.19,4.13,30.37,6.2,45.56l13.84-40.8c-6.68-1.59-13.36-3.17-20.04-4.76Z"/>
    <polyline class="st3" points="1565.74 439.05 1551.18 481.73 1582.32 453.47 1565.74 438.62"/>
    <polygon class="st31" points="1552.47 572.13 1539.64 536.08 1519.17 536.08 1552.47 572.13"/>
  </g>
  <path class="st15" d="M370.4,552.3c-7.94-6.3-22.41-16.6-44.19-31.5-21.15-14.43-38.67-28.35-52.09-41.35-18.54-17.71-27.94-37.94-27.94-60.12,0-19.13,7-34.19,20.79-44.74,13.97-10.69,32.35-16.09,54.64-16.09,33.8,0,64.04,6.34,89.86,18.84l1.81.87,12.43-27.05-1.72-.84c-28.49-14.05-61.02-21.15-96.67-21.15s-64.3,8.26-84.68,24.54c-20.49,16.41-30.88,39.35-30.88,68.16s11.09,54.42,32.97,76.29c11.39,10.97,21.47,19.88,29.97,26.47,8.43,6.53,23.5,17.32,44.82,32.1,21.2,14.7,38.28,28.5,50.81,41.04,17.71,17.29,26.7,36.45,26.7,56.95,0,23.75-8.81,42.44-26.19,55.52-17.54,13.21-42.45,19.91-74,19.91s-61.96-9.71-90.25-28.85l-1.62-1.1-17.39,25.36,1.47,1.15c28.59,22.17,64.54,33.42,106.85,33.42s75.81-9.23,99.54-27.39c23.88-18.28,35.98-45.6,35.98-81.19,0-27.49-10.66-52.09-31.7-73.12-11.43-11-21.3-19.8-29.33-26.13Z"/>
  <polygon class="st15" points="807.83 517.09 491.44 517.09 491.44 329.17 454.28 329.17 454.28 760.31 491.44 760.31 491.44 550.68 807.83 550.68 807.83 760.31 844.97 760.31 844.97 329.17 807.83 329.17 807.83 517.09"/>
  <polygon class="st15" points="1813.82 760.41 1848.39 760.41 1848.39 361.03 1996.84 361.03 1996.84 329.17 1665.36 329.17 1665.36 361.03 1813.82 361.03 1813.82 760.41"/>
  <path class="st15" d="M1627.51,863.7c16.65-1.1,39.52-1.69,68.1-1.69,43.39,0,80.39,14.06,109.96,41.76,29.44,27.6,44.39,65.48,44.39,112.57,0,47.04-13.12,82.56-39,105.59-26.09,23.23-56.73,40.3-100.15,40.3-31.97,0-61.72-.76-83.3-.96v-297.57ZM1343.87,868.69c16.7-1.12,31.39-1.71,43.78-1.71,24.98,0,45.48,6,60.91,17.83,15.17,11.62,22.54,28.25,22.54,50.82s-7.51,43.02-22.34,60.14c-14.64,16.89-28.07,25.45-39.95,25.45-19.96,0-41.78-.76-64.94-2.28v-150.25ZM1695.61,828.4c-37.97,0-71.59,1.06-99.9,3.17l-5.51.43v329.96c-19.84.51-45.52-2.02-63.83-21.4-9.73-10.28-34.44-49.98-73.74-102.16,13.74-10.79,26.28-24.46,37.3-40.67,12.62-18.58,19.03-39.12,19.03-61.03,0-32.81-11.44-58.51-33.99-76.37-22.15-17.53-50.46-26.42-84.14-26.42-21.39,0-47.54,1.26-77.74,3.72l-5.48.45v359.57h36.26v-146.67c24.47,1.44,49.7,2.19,75.13,2.25,40.77,56.42,66.57,97.68,78.84,110.85,12.67,13.59,25.72,23.39,38.74,29.16,8.7,3.84,64.12,4.75,151.13,4.83,6.13.1,12.44.45,18.5.45,4.09,0,8.05-.25,12.06-.43,3.47.02,6.32.02,8.01.06l.04-.41c43.84-3.32,80.75-25.15,109.97-50.43,33.84-29.27,51-73.34,51-130.95s-18.54-103.78-55.1-137.44c-36.43-33.53-82.38-50.51-136.58-50.51Z"/>
  <path class="st15" d="M2333.46,1136.74c-10.23-10.84-36.28-44.8-77.66-99.73,14.45-11.37,27.66-25.74,39.29-42.82,13.29-19.54,20.02-41.17,20.02-64.27,0-34.54-12.04-61.61-35.8-80.41-23.29-18.46-53.1-27.8-88.58-27.8-22.44,0-49.97,1.31-81.84,3.9l-5.76.48v339.88h-165.95v-150.14h129.26v-34.28h-129.26v-118.95h143.18v-34.83h-181.35v370.07h204.12v.17h38.17v-147.77c25.77,1.52,52.31,2.31,79.09,2.38,42.24,58.48,70.18,95.09,83.01,108.86,13.35,14.31,27.07,24.65,40.78,30.7,12.03,5.34,26.43,5.43,43.11,5.54h17.07s.06-40.63.06-40.63c-45.05,4.25-55.48-3.99-70.97-20.38h.01ZM2141.3,858.34c17.57-1.19,33.04-1.8,46.08-1.8,26.31,0,47.89,6.31,64.16,18.77,15.94,12.22,23.73,29.72,23.73,53.51s-7.93,45.21-23.53,63.28c-15.42,17.78-29.58,26.82-42.07,26.82-20.99,0-43.98-.82-68.37-2.39v-158.19Z"/>
  <path class="st16" d="M2393.4,1298.51l-31.38,79.13c-5.59,14.14-13.46,21.19-23.58,21.19-2.84,0-5.21-.29-7.12-.86v-9.8c2.35.82,4.51,1.21,6.47,1.21,5.5,0,9.64-3.28,12.39-9.87l5.45-12.91-26.65-68.08h12.12l18.47,52.5c.22.66.68,2.39,1.38,5.19h.41c.23-1.07.66-2.75,1.32-5.07l19.4-52.62h11.32ZM2322.59,1363.59c-5.23,3.16-11.46,4.73-18.64,4.73-9.73,0-17.58-3.16-23.56-9.48-5.96-6.32-8.96-14.53-8.96-24.63,0-11.23,3.23-20.26,9.66-27.08,6.44-6.8,15.04-10.21,25.79-10.21,6,0,11.28,1.11,15.85,3.32v11.19c-5.07-3.55-10.48-5.32-16.26-5.32-6.96,0-12.69,2.5-17.14,7.5-4.46,4.98-6.71,11.56-6.71,19.67s2.11,14.3,6.3,18.92c4.21,4.62,9.82,6.93,16.89,6.93,5.96,0,11.55-1.98,16.78-5.93v10.39ZM2255.51,1366.73h-10.94v-38.91c0-14.48-5.27-21.72-15.84-21.72-5.46,0-9.99,2.05-13.55,6.16-3.6,4.12-5.37,9.3-5.37,15.55v38.91h-10.94v-68.22h10.94v11.32h.27c5.14-8.62,12.6-12.91,22.38-12.91,7.45,0,13.16,2.41,17.12,7.23,3.96,4.8,5.93,11.78,5.93,20.88v41.7ZM2171.15,1326.09c-.04-6.3-1.57-11.21-4.55-14.74-3-3.5-7.16-5.25-12.5-5.25s-9.53,1.84-13.12,5.53c-3.6,3.68-5.82,8.5-6.67,14.46h36.84ZM2182.34,1335.34h-48.16c.18,7.6,2.23,13.47,6.14,17.6,3.91,4.12,9.27,6.18,16.12,6.18,7.69,0,14.74-2.52,21.17-7.59v10.26c-5.98,4.36-13.92,6.52-23.76,6.52s-17.22-3.09-22.72-9.28c-5.52-6.21-8.28-14.92-8.28-26.15,0-10.62,3.03-19.26,9.03-25.95,6.03-6.69,13.48-10.03,22.42-10.03s15.83,2.89,20.72,8.66c4.89,5.75,7.32,13.78,7.32,24.04v5.73ZM2094.48,1335.89v-10.07c0-5.41-1.82-10.05-5.48-13.91-3.67-3.87-8.24-5.8-13.69-5.8-6.76,0-12.06,2.46-15.88,7.37-3.82,4.91-5.73,11.78-5.73,20.6,0,7.6,1.85,13.69,5.51,18.24,3.66,4.55,8.52,6.82,14.55,6.82s11.12-2.18,14.96-6.52c3.85-4.37,5.76-9.94,5.76-16.71ZM2105.41,1361.27c0,25.04-11.98,37.56-35.97,37.56-8.44,0-15.8-1.59-22.13-4.8v-10.91c7.69,4.25,15.01,6.39,21.99,6.39,16.79,0,25.18-8.94,25.18-26.79v-7.46h-.26c-5.2,8.71-13.02,13.05-23.46,13.05-8.48,0-15.31-3.02-20.47-9.09-5.18-6.05-7.77-14.19-7.77-24.4,0-11.6,2.79-20.81,8.36-27.65,5.57-6.84,13.21-10.25,22.88-10.25s16.01,3.68,20.46,11.05h.26v-9.46h10.93v62.76ZM2008.41,1329.89l-14.99-40.7c-.48-1.34-.98-3.48-1.45-6.39h-.28c-.45,2.7-.95,4.82-1.52,6.39l-14.87,40.7h33.11ZM2034.6,1366.73h-12.39l-10.12-26.79h-40.52l-9.53,26.79h-12.46l36.66-95.53h11.59l36.77,95.53ZM1888.75,1335.89v-10.07c0-5.41-1.82-10.05-5.48-13.91-3.66-3.87-8.23-5.8-13.68-5.8-6.76,0-12.05,2.46-15.87,7.37-3.83,4.91-5.74,11.78-5.74,20.6,0,7.6,1.84,13.69,5.5,18.24,3.67,4.55,8.53,6.82,14.56,6.82s11.12-2.18,14.96-6.52c3.84-4.37,5.75-9.94,5.75-16.71ZM1899.69,1361.27c0,25.04-11.98,37.56-35.97,37.56-8.44,0-15.81-1.59-22.13-4.8v-10.91c7.69,4.25,15.01,6.39,21.99,6.39,16.78,0,25.17-8.94,25.17-26.79v-7.46h-.25c-5.2,8.71-13.03,13.05-23.46,13.05-8.48,0-15.31-3.02-20.47-9.09-5.18-6.05-7.77-14.19-7.77-24.4,0-11.6,2.79-20.81,8.36-27.65,5.57-6.84,13.22-10.25,22.88-10.25s16.01,3.68,20.46,11.05h.25v-9.46h10.94v62.76ZM1820.88,1366.73h-10.94v-38.91c0-14.48-5.28-21.72-15.85-21.72-5.46,0-9.98,2.05-13.55,6.16-3.6,4.12-5.37,9.3-5.37,15.55v38.91h-10.94v-68.22h10.94v11.32h.27c5.15-8.62,12.6-12.91,22.38-12.91,7.46,0,13.16,2.41,17.12,7.23,3.96,4.8,5.94,11.78,5.94,20.88v41.7ZM1739.86,1347.67c0,6.25,2.41,9.39,7.25,9.39,1.96,0,3.71-.25,5.25-.73v9.87c-.84.2-1.95.43-3.36.61-1.39.2-2.87.32-4.41.32-2.18,0-4.23-.37-6.14-1.07-1.91-.73-3.57-1.8-4.96-3.27-1.41-1.46-2.52-3.3-3.34-5.5-.82-2.18-1.23-4.75-1.23-7.69v-51.09h10.94v49.16ZM1734.52,1281.18c-1.96,0-3.62-.66-5.01-2-1.36-1.32-2.04-3-2.04-5.05s.68-3.75,2.04-5.09c1.39-1.36,3.05-2.05,5.01-2.05s3.7.68,5.09,2.05c1.41,1.34,2.11,3.05,2.11,5.09s-.7,3.61-2.11,4.98c-1.39,1.39-3.09,2.07-5.09,2.07ZM1715.07,1366.07c-2.57,1.41-5.98,2.11-10.18,2.11-11.96,0-17.92-6.66-17.92-19.97v-40.38h-11.74v-9.32h11.74v-16.65l10.91-3.55v20.19h17.19v9.32h-17.19v38.45c0,4.57.78,7.82,2.34,9.78,1.55,1.95,4.12,2.93,7.71,2.93,2.78,0,5.14-.75,7.14-2.25v9.32ZM1655.7,1326.09c-.04-6.3-1.57-11.21-4.55-14.74-3-3.5-7.16-5.25-12.5-5.25s-9.53,1.84-13.12,5.53c-3.6,3.68-5.82,8.5-6.67,14.46h36.84ZM1666.89,1335.34h-48.16c.18,7.6,2.23,13.47,6.14,17.6,3.91,4.12,9.27,6.18,16.12,6.18,7.69,0,14.73-2.52,21.17-7.59v10.26c-5.98,4.36-13.92,6.52-23.76,6.52s-17.22-3.09-22.72-9.28c-5.52-6.21-8.28-14.92-8.28-26.15,0-10.62,3.03-19.26,9.03-25.95,6.03-6.69,13.48-10.03,22.42-10.03s15.83,2.89,20.72,8.66c4.89,5.75,7.32,13.78,7.32,24.04v5.73ZM1603.63,1366.73h-15.33l-30.11-32.77h-.27v32.77h-10.94v-100.99h10.94v64.01h.27l28.63-31.24h14.33l-31.63,32.9,34.11,35.32ZM1535.14,1309.56c-1.91-1.45-4.66-2.18-8.26-2.18-4.68,0-8.57,2.18-11.71,6.6-3.11,4.39-4.68,10.39-4.68,17.98v34.77h-10.94v-68.22h10.94v14.05h.27c1.55-4.8,3.91-8.53,7.12-11.21,3.21-2.71,6.78-4.05,10.73-4.05,2.84,0,5,.32,6.53.93v11.33ZM1468.04,1332.21l-16.45,2.27c-5.07.71-8.89,1.96-11.46,3.78-2.56,1.79-3.86,4.98-3.86,9.55,0,3.32,1.18,6.05,3.57,8.16,2.36,2.12,5.52,3.16,9.48,3.16,5.41,0,9.89-1.89,13.42-5.68,3.55-3.8,5.3-8.62,5.3-14.44v-6.8ZM1478.97,1366.73h-10.93v-10.66h-.25c-4.76,8.18-11.76,12.25-20.99,12.25-6.8,0-12.12-1.8-15.97-5.39-3.84-3.59-5.75-8.37-5.75-14.33,0-12.74,7.51-20.17,22.51-22.24l20.45-2.86c0-11.6-4.69-17.4-14.06-17.4-8.21,0-15.62,2.8-22.24,8.39v-11.19c6.71-4.27,14.42-6.39,23.17-6.39,16.03,0,24.06,8.48,24.06,25.44v44.36ZM1406.55,1366.73h-11.12v-64.08c0-2.55.07-5.41.23-8.64.16-3.2.38-6.66.7-10.34h-.27c-.25,1.07-.66,2.25-1.18,3.55-.55,1.32-1.12,2.59-1.71,3.8-.61,1.23-1.16,2.32-1.66,3.3-.52.98-.89,1.73-1.11,2.21l-24.52,45.3h-5.45l-24.52-45.16c-.23-.52-.61-1.3-1.13-2.3-.52-1-1.1-2.12-1.66-3.34-.59-1.2-1.14-2.46-1.64-3.75-.52-1.3-.91-2.48-1.16-3.59h-.27c.18,1.91.31,4.48.4,7.73.08,3.23.12,7.03.12,11.37v63.96h-10.78v-95.53h13.99l24.78,45.43c1.07,2,1.98,3.86,2.73,5.59.75,1.73,1.32,3.25,1.66,4.52h.41c.43-1.32,1.02-2.89,1.75-4.66.75-1.77,1.68-3.68,2.84-5.73l24.72-45.16h13.85v95.53ZM1256.59,1347.67c0,6.25,2.41,9.39,7.25,9.39,1.95,0,3.7-.25,5.25-.73v9.87c-.84.2-1.95.43-3.36.61-1.39.2-2.87.32-4.42.32-2.18,0-4.22-.37-6.13-1.07-1.91-.73-3.57-1.8-4.96-3.27-1.41-1.46-2.53-3.3-3.34-5.5-.82-2.18-1.23-4.75-1.23-7.69v-83.86h10.94v81.93ZM1214.86,1332.21l-16.44,2.27c-5.07.71-8.89,1.96-11.46,3.78-2.57,1.79-3.87,4.98-3.87,9.55,0,3.32,1.18,6.05,3.57,8.16,2.37,2.12,5.53,3.16,9.48,3.16,5.42,0,9.9-1.89,13.42-5.68,3.55-3.8,5.3-8.62,5.3-14.44v-6.8ZM1225.8,1366.73h-10.94v-10.66h-.25c-4.75,8.18-11.76,12.25-20.99,12.25-6.8,0-12.12-1.8-15.96-5.39-3.85-3.59-5.76-8.37-5.76-14.33,0-12.74,7.51-20.17,22.51-22.24l20.45-2.86c0-11.6-4.69-17.4-14.05-17.4-8.21,0-15.63,2.8-22.24,8.39v-11.19c6.7-4.27,14.41-6.39,23.17-6.39,16.03,0,24.06,8.48,24.06,25.44v44.36ZM1162.38,1366.07c-2.57,1.41-5.99,2.11-10.19,2.11-11.96,0-17.92-6.66-17.92-19.97v-40.38h-11.73v-9.32h11.73v-16.65l10.91-3.55v20.19h17.2v9.32h-17.2v38.45c0,4.57.78,7.82,2.35,9.78,1.54,1.95,4.11,2.93,7.7,2.93,2.78,0,5.15-.75,7.15-2.25v9.32ZM1106.35,1347.67c0,6.25,2.41,9.39,7.25,9.39,1.96,0,3.71-.25,5.26-.73v9.87c-.85.2-1.96.43-3.37.61-1.39.2-2.86.32-4.41.32-2.19,0-4.23-.37-6.14-1.07-1.91-.73-3.57-1.8-4.96-3.27-1.41-1.46-2.52-3.3-3.34-5.5-.82-2.18-1.23-4.75-1.23-7.69v-51.09h10.94v49.16ZM1101,1281.18c-1.95,0-3.61-.66-5-2-1.36-1.32-2.05-3-2.05-5.05s.69-3.75,2.05-5.09c1.39-1.36,3.05-2.05,5-2.05s3.71.68,5.1,2.05c1.41,1.34,2.11,3.05,2.11,5.09s-.7,3.61-2.11,4.98c-1.39,1.39-3.1,2.07-5.1,2.07ZM1063.1,1335.89v-10.07c0-5.41-1.82-10.05-5.48-13.91-3.66-3.87-8.23-5.8-13.69-5.8-6.75,0-12.05,2.46-15.87,7.37-3.83,4.91-5.73,11.78-5.73,20.6,0,7.6,1.84,13.69,5.5,18.24,3.66,4.55,8.53,6.82,14.55,6.82s11.12-2.18,14.96-6.52c3.85-4.37,5.76-9.94,5.76-16.71ZM1074.04,1361.27c0,25.04-11.99,37.56-35.98,37.56-8.43,0-15.8-1.59-22.12-4.8v-10.91c7.68,4.25,15,6.39,21.99,6.39,16.78,0,25.17-8.94,25.17-26.79v-7.46h-.25c-5.21,8.71-13.03,13.05-23.47,13.05-8.48,0-15.3-3.02-20.47-9.09-5.18-6.05-7.77-14.19-7.77-24.4,0-11.6,2.79-20.81,8.37-27.65,5.57-6.84,13.21-10.25,22.87-10.25s16.01,3.68,20.47,11.05h.25v-9.46h10.94v62.76ZM991.42,1347.67c0,6.25,2.41,9.39,7.25,9.39,1.95,0,3.7-.25,5.25-.73v9.87c-.84.2-1.95.43-3.36.61-1.39.2-2.87.32-4.42.32-2.18,0-4.23-.37-6.14-1.07-1.91-.73-3.57-1.8-4.96-3.27-1.41-1.46-2.53-3.3-3.34-5.5-.82-2.18-1.23-4.75-1.23-7.69v-51.09h10.93v49.16ZM986.08,1281.18c-1.96,0-3.62-.66-5-2-1.36-1.32-2.05-3-2.05-5.05s.68-3.75,2.05-5.09c1.39-1.36,3.05-2.05,5-2.05s3.7.68,5.09,2.05c1.41,1.34,2.12,3.05,2.12,5.09s-.71,3.61-2.12,4.98c-1.39,1.39-3.09,2.07-5.09,2.07ZM898.22,1281.32v75.29h14.26c12.53,0,22.26-3.36,29.24-10.07,6.98-6.71,10.46-16.21,10.46-28.51,0-24.47-13.01-36.7-39.04-36.7h-14.92ZM887.03,1366.73v-95.53h26.38c33.65,0,50.5,15.51,50.5,46.57,0,14.73-4.68,26.58-14.03,35.54-9.34,8.94-21.85,13.42-37.54,13.42h-25.31Z"/>
  <path class="st15" d="M1042,762.85c-.23,18.5-11.96,36.91-35.21,45.82-2.51.96-5.32,2.23-8.34,3.68-19.81,9.57-39.92,21.94-55.73,37.41-32.57,33.68-52.61,79.54-52.61,130.07,0,100.61,79.44,182.69,179.01,186.95l15.6.02c99.87-3.93,179.66-86.14,179.66-186.96,0-50.54-20.04-96.4-52.61-130.07-1.78-1.73-3.59-3.44-5.43-5.1-11.75-10.49-34-24.44-50.3-32.31-3.02-1.46-5.83-2.72-8.34-3.68-23.25-8.91-34.98-27.32-35.21-45.82.23-18.5,11.96-36.91,35.21-45.82,2.51-.96,5.26-2.37,8.34-3.69,12.44-5.33,26.95-13.88,38.51-22.02,4.37-3.53,8.58-7.25,12.61-11.15,1.73-1.77,3.44-3.58,5.1-5.43,10.49-11.74,24.44-33.99,32.31-50.3,1.46-3.01,2.73-5.82,3.69-8.33,8.91-23.25,27.32-34.99,45.82-35.22,18.51.23,36.92,11.97,45.82,35.22.97,2.51,2.23,5.32,3.69,8.33,7.87,16.31,21.82,38.56,32.31,50.3,1.67,1.85,3.37,3.66,5.1,5.43,33.68,32.57,79.54,52.61,130.08,52.61,100.61,0,182.69-79.44,186.94-179l.02-15.6c-3.93-99.87-86.13-179.66-186.96-179.66-50.54,0-96.4,20.04-130.08,52.61-1.73,1.78-3.43,3.59-5.1,5.43-10.49,11.75-24.44,34-32.31,50.3-1.46,3.02-2.72,5.82-3.69,8.34-8.9,23.24-27.31,34.98-45.82,35.21-18.5-.23-36.91-11.97-45.82-35.21-.96-2.52-2.23-5.32-3.69-8.34-7.87-16.3-21.82-38.55-32.31-50.3-1.66-1.84-3.37-3.65-5.1-5.43-33.68-32.57-79.54-52.61-130.07-52.61-100.83,0-183.04,79.79-186.97,179.66l.02,15.6c3.11,72.84,44.94,128.96,108.31,159.56,3.02,1.46,5.83,2.73,8.34,3.69,23.25,8.91,34.98,27.32,35.21,45.82ZM860.76,979.85c0-62.85,26.8-119.43,69.59-158.98,18.03-16.33,34.05-26.75,56.72-36.47,15.21-6.51,22.99-14.02,23.36-21.55-.51-8.5-8.74-13.8-23.36-21.55-17.69-9.37-40.03-21.73-56.72-36.44-1.81-1.18-14.21-13.55-13.36-13.54-33.29-36.57-54.23-84.58-56.21-137.44l-.02-15.7c3.95-116.08,99.29-209.01,216.33-209.01,62.84,0,119.43,26.8,158.98,69.58h.02c14.99,15.02,28,37.03,36.44,56.73,6.52,15.2,14.02,22.99,21.55,23.35,7.53-.36,15.04-8.15,21.55-23.35,8.44-19.7,21.45-41.71,36.44-56.73h.03c39.54-42.78,96.13-69.58,158.97-69.58,117.04,0,212.39,92.93,216.33,209.01l-.02,15.7c-4.33,115.73-99.52,208.26-216.3,208.26-62.85,0-119.44-26.8-158.98-69.59h-.03c-14.99-15.02-28-37.03-36.44-56.72-6.51-15.21-14.02-22.99-21.55-23.36-7.53.37-15.03,8.15-21.55,23.36-8.19,19.11-20.68,40.4-35.11,55.36-4.27,4.7-8.61,9.34-13.27,13.65-12.55,12-29.4,22.36-41.82,29.08-1.06.59-10.47,5.51-10.47,5.35-1.84.88-3.35,1.57-4.43,2.03-15.22,6.52-23,14.02-23.36,21.55.36,7.53,8.14,15.04,23.36,21.55,7.76,3.33,47.9,26.7,56.72,36.47,42.78,39.55,69.58,96.13,69.58,158.98,0,117.04-92.93,212.38-209.01,216.32l-15.7-.02c-115.73-4.33-208.26-99.52-208.26-216.3Z"/>
  <g>
    <path class="st15" d="M2356.74,331.68c-26.9,0-48.7,21.81-48.7,48.7s21.81,48.7,48.7,48.7,48.7-21.81,48.7-48.7-21.81-48.7-48.7-48.7ZM2356.74,423.77c-23.96,0-43.38-19.42-43.38-43.38s19.42-43.38,43.38-43.38,43.38,19.42,43.38,43.38-19.42,43.38-43.38,43.38Z"/>
    <text class="st24" transform="translate(2329.01 406.08)"><tspan x="0" y="0">R</tspan></text>
  </g>
</svg>